ffmpeg started on 2016-12-10 at 03:30:51
Report written to "Output/x264/results/ffmpeg/sintelplacebo14000k.log"
Command line:
Tools/ffmpeg/ffmpeg -benchmark -y -i Input/y4m/sintel.y4m -c:v libx264 -preset placebo -b:v 14000k -an Output/x264/encoded/sintelplacebo14000k.mkv
ffmpeg version N-82227-gdb23fde Copyright (c) 2000-2016 the FFmpeg developers
  built with gcc 5.4.0 (Ubuntu 5.4.0-6ubuntu1~16.04.2) 20160609
  configuration: --prefix=/home/jaroslav/ffmpeg_build --pkg-config-flags=--static --extra-cflags=-I/home/jaroslav/ffmpeg_build/include --extra-ldflags=-L/home/jaroslav/ffmpeg_build/lib --bindir=/home/jaroslav/bin --enable-gpl --enable-libass --enable-libfdk-aac --enable-libfreetype --enable-libmp3lame --enable-libopus --enable-libtheora --enable-libvorbis --enable-libvpx --enable-libx264 --enable-libx265 --enable-nvenc --enable-libmfx --enable-libxvid --enable-libgsm --enable-libopencore-amrnb --enable-version3 --enable-nonfree
  libavutil      55. 35.100 / 55. 35.100
  libavcodec     57. 66.101 / 57. 66.101
  libavformat    57. 57.100 / 57. 57.100
  libavdevice    57.  2.100 / 57.  2.100
  libavfilter     6. 66.100 /  6. 66.100
  libswscale      4.  3.100 /  4.  3.100
  libswresample   2.  4.100 /  2.  4.100
  libpostproc    54.  2.100 / 54.  2.100
Input #0, yuv4mpegpipe, from 'Input/y4m/sintel.y4m':
  Duration: 00:00:20.83, start: 0.000000, bitrate: 2057307 kb/s
    Stream #0:0: Video: rawvideo (I420 / 0x30323449), yuv420p(progressive), 4096x1744, SAR 1:1 DAR 256:109, 24 fps, 24 tbr, 24 tbn, 24 tbc
[libx264 @ 0x44711c0] using SAR=1/1
[libx264 @ 0x44711c0] DPB size (16 frames, 446464 mbs) > level limit (6 frames, 184320 mbs)
[libx264 @ 0x44711c0] using cpu capabilities: MMX2 SSE2Fast SSSE3 SSE4.2 AVX FMA3 AVX2 LZCNT BMI2
[libx264 @ 0x44711c0] profile High, level 5.2
[libx264 @ 0x44711c0] 264 - core 148 - H.264/MPEG-4 AVC codec - Copyleft 2003-2016 - http://www.videolan.org/x264.html - options: cabac=1 ref=16 deblock=1:0:0 analyse=0x3:0x133 me=tesa subme=11 psy=1 psy_rd=1.00:0.00 mixed_ref=1 me_range=24 chroma_me=1 trellis=2 8x8dct=1 cqm=0 deadzone=21,11 fast_pskip=0 chroma_qp_offset=-2 threads=6 lookahead_threads=1 sliced_threads=0 nr=0 decimate=1 interlaced=0 bluray_compat=0 constrained_intra=0 bframes=16 b_pyramid=2 b_adapt=2 b_bias=0 direct=3 weightb=1 open_gop=0 weightp=2 keyint=250 keyint_min=24 scenecut=40 intra_refresh=0 rc_lookahead=60 rc=abr mbtree=1 bitrate=14000 ratetol=1.0 qcomp=0.60 qpmin=0 qpmax=69 qpstep=4 ip_ratio=1.40 aq=1:1.00
Output #0, matroska, to 'Output/x264/encoded/sintelplacebo14000k.mkv':
  Metadata:
    encoder         : Lavf57.57.100
    Stream #0:0: Video: h264 (libx264) (H264 / 0x34363248), yuv420p, 4096x1744 [SAR 1:1 DAR 256:109], q=-1--1, 14000 kb/s, 24 fps, 1k tbn, 24 tbc
    Metadata:
      encoder         : Lavc57.66.101 libx264
    Side data:
      cpb: bitrate max/min/avg: 0/0/14000000 buffer size: 0 vbv_delay: -1
Stream mapping:
  Stream #0:0 -> #0:0 (rawvideo (native) -> h264 (libx264))
Press [q] to stop, [?] for help
frame=   11 fps=0.0 q=0.0 size=       0kB time=00:00:00.00 bitrate=N/A speed=   0x    frame=   19 fps= 16 q=0.0 size=       0kB time=00:00:00.00 bitrate=N/A speed=   0x    frame=   24 fps= 14 q=0.0 size=       0kB time=00:00:00.00 bitrate=N/A speed=   0x    frame=   28 fps= 11 q=0.0 size=       0kB time=00:00:00.00 bitrate=N/A speed=   0x    frame=   29 fps=5.3 q=0.0 size=       0kB time=00:00:00.00 bitrate=N/A speed=   0x    frame=   30 fps=3.5 q=0.0 size=       0kB time=00:00:00.00 bitrate=N/A speed=   0x    frame=   31 fps=2.6 q=0.0 size=       0kB time=00:00:00.00 bitrate=N/A speed=   0x    frame=   41 fps=3.3 q=0.0 size=       0kB time=00:00:00.00 bitrate=N/A speed=   0x    frame=   52 fps=4.1 q=0.0 size=       0kB time=00:00:00.00 bitrate=N/A speed=   0x    frame=   62 fps=4.7 q=0.0 size=       0kB time=00:00:00.00 bitrate=N/A speed=   0x    frame=   72 fps=5.2 q=0.0 size=       0kB time=00:00:00.00 bitrate=N/A speed=   0x    frame=   82 fps=5.7 q=0.0 size=       0kB time=00:00:00.00 bitrate=N/A speed=   0x    frame=   84 fps=1.2 q=0.0 size=       0kB time=00:00:00.00 bitrate=N/A speed=   0x    frame=   86 fps=1.3 q=0.0 size=       0kB time=00:00:00.00 bitrate=N/A speed=   0x    frame=   88 fps=1.2 q=22.0 size=       1kB time=-00:00:00.08 bitrate=N/A speed=N/A    frame=   90 fps=1.2 q=27.0 size=       1kB time=00:00:00.00 bitrate=5888.0kbits/s speed=1.28e-05x    frame=   92 fps=1.1 q=34.0 size=       1kB time=00:00:00.08 bitrate=  70.1kbits/s speed=0.00104x    frame=   93 fps=1.1 q=38.0 size=       1kB time=00:00:00.12 bitrate=  46.7kbits/s speed=0.00144x    frame=   94 fps=1.1 q=38.0 size=       1kB time=00:00:00.16 bitrate=  35.0kbits/s speed=0.00189x    frame=   95 fps=1.1 q=39.0 size=       1kB time=00:00:00.20 bitrate=  28.2kbits/s speed=0.00232x    frame=   96 fps=1.0 q=38.0 size=       1kB time=00:00:00.25 bitrate=  23.5kbits/s speed=0.00274x    frame=   98 fps=1.1 q=38.0 size=       1kB time=00:00:00.33 bitrate=  17.6kbits/s speed=0.0036x    frame=   99 fps=1.0 q=38.0 size=       1kB time=00:00:00.37 bitrate=  15.7kbits/s speed=0.00367x    frame=  100 fps=1.0 q=38.0 size=       1kB time=00:00:00.41 bitrate=  14.1kbits/s speed=0.00404x    frame=  101 fps=1.0 q=38.0 size=       1kB time=00:00:00.45 bitrate=  12.8kbits/s speed=0.00437x    frame=  102 fps=1.0 q=38.0 size=       1kB time=00:00:00.50 bitrate=  11.8kbits/s speed=0.00472x    frame=  103 fps=1.0 q=38.0 size=       1kB time=00:00:00.54 bitrate=  10.8kbits/s speed=0.00503x    frame=  104 fps=0.9 q=38.0 size=       1kB time=00:00:00.58 bitrate=  10.1kbits/s speed=0.00528x    frame=  105 fps=0.9 q=38.0 size=       1kB time=00:00:00.62 bitrate=   9.4kbits/s speed=0.00527x    frame=  106 fps=0.9 q=38.0 size=       1kB time=00:00:00.66 bitrate=   8.8kbits/s speed=0.00541x    frame=  107 fps=0.9 q=38.0 size=       1kB time=00:00:00.70 bitrate=   8.3kbits/s speed=0.00566x    frame=  108 fps=0.8 q=38.0 size=       1kB time=00:00:00.75 bitrate=   7.8kbits/s speed=0.00591x    frame=  109 fps=0.8 q=38.0 size=       1kB time=00:00:00.79 bitrate=   7.4kbits/s speed=0.00608x    frame=  110 fps=0.8 q=38.0 size=       1kB time=00:00:00.83 bitrate=   7.1kbits/s speed=0.00622x    frame=  111 fps=0.8 q=38.0 size=       1kB time=00:00:00.87 bitrate=   6.7kbits/s speed=0.00616x    frame=  112 fps=0.8 q=38.0 size=       1kB time=00:00:00.91 bitrate=   6.4kbits/s speed=0.00623x    frame=  113 fps=0.7 q=37.0 size=       1kB time=00:00:00.95 bitrate=   6.1kbits/s speed=0.00636x    frame=  114 fps=0.7 q=37.0 size=       1kB time=00:00:01.00 bitrate=   5.9kbits/s speed=0.00654x    frame=  116 fps=0.7 q=37.0 size=       1kB time=00:00:01.08 bitrate=   5.4kbits/s speed=0.00698x    frame=  117 fps=0.7 q=37.0 size=       1kB time=00:00:01.12 bitrate=   5.2kbits/s speed=0.00684x    frame=  118 fps=0.7 q=37.0 size=       1kB time=00:00:01.16 bitrate=   5.0kbits/s speed=0.00687x    frame=  119 fps=0.7 q=37.0 size=       1kB time=00:00:01.20 bitrate=   4.9kbits/s speed=0.00701x    frame=  120 fps=0.7 q=37.0 size=       1kB time=00:00:01.25 bitrate=   4.7kbits/s speed=0.00708x    frame=  121 fps=0.7 q=37.0 size=       1kB time=00:00:01.29 bitrate=   4.6kbits/s speed=0.0072x    frame=  122 fps=0.7 q=37.0 size=       1kB time=00:00:01.33 bitrate=   4.4kbits/s speed=0.00733x    frame=  123 fps=0.6 q=37.0 size=       1kB time=00:00:01.37 bitrate=   4.3kbits/s speed=0.00726x    frame=  124 fps=0.6 q=36.0 size=       1kB time=00:00:01.41 bitrate=   4.2kbits/s speed=0.00733x    frame=  125 fps=0.6 q=36.0 size=       1kB time=00:00:01.45 bitrate=   4.0kbits/s speed=0.00736x    frame=  126 fps=0.6 q=36.0 size=       1kB time=00:00:01.50 bitrate=   3.9kbits/s speed=0.00744x    frame=  127 fps=0.6 q=36.0 size=       1kB time=00:00:01.54 bitrate=   3.8kbits/s speed=0.00757x    frame=  128 fps=0.6 q=36.0 size=       1kB time=00:00:01.58 bitrate=   3.7kbits/s speed=0.00766x    frame=  129 fps=0.6 q=36.0 size=       1kB time=00:00:01.62 bitrate=   3.6kbits/s speed=0.00763x    frame=  130 fps=0.6 q=36.0 size=       1kB time=00:00:01.66 bitrate=   3.5kbits/s speed=0.00765x    frame=  131 fps=0.6 q=36.0 size=       1kB time=00:00:01.70 bitrate=   3.4kbits/s speed=0.00774x    frame=  132 fps=0.6 q=36.0 size=       1kB time=00:00:01.75 bitrate=   3.4kbits/s speed=0.00779x    frame=  133 fps=0.6 q=36.0 size=       1kB time=00:00:01.79 bitrate=   3.3kbits/s speed=0.00783x    frame=  134 fps=0.6 q=35.0 size=       1kB time=00:00:01.83 bitrate=   3.2kbits/s speed=0.00792x    frame=  135 fps=0.6 q=35.0 size=       1kB time=00:00:01.87 bitrate=   3.1kbits/s speed=0.00789x    frame=  136 fps=0.6 q=35.0 size=       1kB time=00:00:01.91 bitrate=   3.1kbits/s speed=0.0079x    frame=  137 fps=0.6 q=35.0 size=       1kB time=00:00:01.95 bitrate=   3.0kbits/s speed=0.008x    frame=  138 fps=0.6 q=35.0 size=       1kB time=00:00:02.00 bitrate=   2.9kbits/s speed=0.008x    frame=  139 fps=0.5 q=35.0 size=       1kB time=00:00:02.04 bitrate=   2.9kbits/s speed=0.00801x    frame=  140 fps=0.5 q=35.0 size=       1kB time=00:00:02.08 bitrate=   2.8kbits/s speed=0.00804x    frame=  141 fps=0.5 q=35.0 size=       1kB time=00:00:02.12 bitrate=   2.8kbits/s speed=0.00804x    frame=  142 fps=0.5 q=35.0 size=       1kB time=00:00:02.16 bitrate=   2.7kbits/s speed=0.00803x    frame=  143 fps=0.5 q=35.0 size=       1kB time=00:00:02.20 bitrate=   2.7kbits/s speed=0.00807x    frame=  144 fps=0.5 q=35.0 size=       1kB time=00:00:02.25 bitrate=   2.6kbits/s speed=0.00806x    frame=  145 fps=0.5 q=35.0 size=       1kB time=00:00:02.29 bitrate=   2.6kbits/s speed=0.00808x    frame=  146 fps=0.5 q=35.0 size=       1kB time=00:00:02.33 bitrate=   2.5kbits/s speed=0.00815x    frame=  147 fps=0.5 q=35.0 size=       1kB time=00:00:02.37 bitrate=   2.5kbits/s speed=0.00815x    frame=  148 fps=0.5 q=35.0 size=    5170kB time=00:00:02.41 bitrate=17516.4kbits/s speed=0.0081x    frame=  149 fps=0.5 q=35.0 size=    5170kB time=00:00:02.45 bitrate=17224.4kbits/s speed=0.00817x    frame=  150 fps=0.5 q=35.0 size=    5170kB time=00:00:02.50 bitrate=16935.1kbits/s speed=0.00815x    frame=  151 fps=0.5 q=35.0 size=    5170kB time=00:00:02.54 bitrate=16655.4kbits/s speed=0.00822x    frame=  152 fps=0.5 q=35.0 size=    5170kB time=00:00:02.58 bitrate=16391.2kbits/s speed=0.00826x    frame=  153 fps=0.5 q=35.0 size=    5170kB time=00:00:02.62 bitrate=16129.0kbits/s speed=0.00827x    frame=  154 fps=0.5 q=35.0 size=    5170kB time=00:00:02.66 bitrate=15875.1kbits/s speed=0.00821x    frame=  155 fps=0.5 q=35.0 size=    5170kB time=00:00:02.70 bitrate=15634.8kbits/s speed=0.00826x    frame=  156 fps=0.5 q=35.0 size=    5170kB time=00:00:02.75 bitrate=15396.1kbits/s speed=0.00832x    frame=  157 fps=0.5 q=34.0 size=    5170kB time=00:00:02.79 bitrate=15164.6kbits/s speed=0.00838x    frame=  158 fps=0.5 q=34.0 size=    5170kB time=00:00:02.83 bitrate=14945.2kbits/s speed=0.00844x    frame=  159 fps=0.5 q=34.0 size=    5170kB time=00:00:02.87 bitrate=14727.0kbits/s speed=0.00842x    frame=  160 fps=0.5 q=34.0 size=    5170kB time=00:00:02.91 bitrate=14515.0kbits/s speed=0.00839x    frame=  161 fps=0.5 q=34.0 size=    5170kB time=00:00:02.95 bitrate=14313.9kbits/s speed=0.00844x    frame=  162 fps=0.5 q=34.0 size=    5170kB time=00:00:03.00 bitrate=14113.6kbits/s speed=0.0085x    frame=  163 fps=0.5 q=34.0 size=    5170kB time=00:00:03.04 bitrate=13918.8kbits/s speed=0.00856x    frame=  164 fps=0.5 q=34.0 size=    5170kB time=00:00:03.08 bitrate=13733.7kbits/s speed=0.00863x    frame=  165 fps=0.5 q=34.0 size=    5170kB time=00:00:03.12 bitrate=13549.2kbits/s speed=0.00862x    frame=  166 fps=0.5 q=34.0 size=    5170kB time=00:00:03.16 bitrate=13369.6kbits/s speed=0.00859x    frame=  167 fps=0.4 q=34.0 size=    5170kB time=00:00:03.20 bitrate=13198.7kbits/s speed=0.00862x    frame=  168 fps=0.4 q=34.0 size=    5170kB time=00:00:03.25 bitrate=13028.2kbits/s speed=0.00868x    frame=  169 fps=0.4 q=34.0 size=    5170kB time=00:00:03.29 bitrate=12862.1kbits/s speed=0.00871x    frame=  170 fps=0.4 q=34.0 size=    5170kB time=00:00:03.33 bitrate=12703.9kbits/s speed=0.00874x    frame=  171 fps=0.4 q=34.0 size=    5170kB time=00:00:03.37 bitrate=12545.8kbits/s speed=0.00875x    frame=  172 fps=0.4 q=33.0 size=    5170kB time=00:00:03.41 bitrate=12391.7kbits/s speed=0.00874x    frame=  173 fps=0.4 q=33.0 size=    5170kB time=00:00:03.45 bitrate=12244.8kbits/s speed=0.00873x    frame=  174 fps=0.4 q=33.0 size=    5170kB time=00:00:03.50 bitrate=12097.9kbits/s speed=0.0088x    frame=  175 fps=0.4 q=33.0 size=    5170kB time=00:00:03.54 bitrate=11954.5kbits/s speed=0.00882x    frame=  176 fps=0.4 q=33.0 size=    5170kB time=00:00:03.58 bitrate=11817.7kbits/s speed=0.00883x    frame=  177 fps=0.4 q=33.0 size=    5170kB time=00:00:03.62 bitrate=11680.9kbits/s speed=0.00887x    frame=  178 fps=0.4 q=33.0 size=    5170kB time=00:00:03.66 bitrate=11547.1kbits/s speed=0.0088x    frame=  179 fps=0.4 q=33.0 size=    5170kB time=00:00:03.70 bitrate=11419.5kbits/s speed=0.00881x    frame=  180 fps=0.4 q=33.0 size=    5170kB time=00:00:03.75 bitrate=11291.6kbits/s speed=0.00885x    frame=  181 fps=0.4 q=33.0 size=    5170kB time=00:00:03.79 bitrate=11166.6kbits/s speed=0.00888x    frame=  182 fps=0.4 q=33.0 size=    5170kB time=00:00:03.83 bitrate=11047.1kbits/s speed=0.00892x    frame=  183 fps=0.4 q=33.0 size=    5170kB time=00:00:03.87 bitrate=10927.4kbits/s speed=0.00893x    frame=  184 fps=0.4 q=33.0 size=    5170kB time=00:00:03.91 bitrate=10810.3kbits/s speed=0.00887x    frame=  185 fps=0.4 q=33.0 size=    5170kB time=00:00:03.95 bitrate=10698.4kbits/s speed=0.00888x    frame=  186 fps=0.4 q=33.0 size=    5170kB time=00:00:04.00 bitrate=10586.0kbits/s speed=0.00889x    frame=  187 fps=0.4 q=33.0 size=    5170kB time=00:00:04.04 bitrate=10476.1kbits/s speed=0.00893x    frame=  188 fps=0.4 q=33.0 size=    5170kB time=00:00:04.08 bitrate=10370.9kbits/s speed=0.00899x    frame=  189 fps=0.4 q=33.0 size=    5170kB time=00:00:04.12 bitrate=10265.3kbits/s speed=0.00897x    frame=  190 fps=0.4 q=33.0 size=    5170kB time=00:00:04.16 bitrate=10161.9kbits/s speed=0.00904x    frame=  191 fps=0.4 q=33.0 size=    5170kB time=00:00:04.20 bitrate=10062.9kbits/s speed=0.00898x    frame=  192 fps=0.4 q=33.0 size=    5170kB time=00:00:04.25 bitrate=9963.5kbits/s speed=0.00905x    frame=  193 fps=0.4 q=33.0 size=    5170kB time=00:00:04.29 bitrate=9866.0kbits/s speed=0.00905x    frame=  194 fps=0.4 q=32.0 size=    5170kB time=00:00:04.33 bitrate=9772.7kbits/s speed=0.00911x    frame=  195 fps=0.4 q=32.0 size=    5170kB time=00:00:04.37 bitrate=9678.9kbits/s speed=0.00909x    frame=  196 fps=0.4 q=32.0 size=    5170kB time=00:00:04.41 bitrate=9586.9kbits/s speed=0.00915x    frame=  197 fps=0.4 q=32.0 size=    5170kB time=00:00:04.45 bitrate=9498.7kbits/s speed=0.00911x    frame=  198 fps=0.4 q=32.0 size=    5170kB time=00:00:04.50 bitrate=9410.1kbits/s speed=0.00913x    frame=  199 fps=0.4 q=32.0 size=    5170kB time=00:00:04.54 bitrate=9323.1kbits/s speed=0.00914x    frame=  200 fps=0.4 q=32.0 size=    5170kB time=00:00:04.58 bitrate=9239.7kbits/s speed=0.00918x    frame=  201 fps=0.4 q=32.0 size=    5170kB time=00:00:04.62 bitrate=9155.8kbits/s speed=0.00917x    frame=  202 fps=0.4 q=32.0 size=    5170kB time=00:00:04.66 bitrate=9073.4kbits/s speed=0.00921x    frame=  203 fps=0.4 q=32.0 size=    5170kB time=00:00:04.70 bitrate=8994.4kbits/s speed=0.00923x    frame=  204 fps=0.4 q=32.0 size=    5170kB time=00:00:04.75 bitrate=8914.9kbits/s speed=0.00908x    frame=  205 fps=0.4 q=32.0 size=    5170kB time=00:00:04.79 bitrate=8836.8kbits/s speed=0.0091x    frame=  206 fps=0.4 q=32.0 size=    5170kB time=00:00:04.83 bitrate=8761.8kbits/s speed=0.00913x    frame=  207 fps=0.4 q=32.0 size=    5170kB time=00:00:04.87 bitrate=8686.4kbits/s speed=0.00918x    frame=  208 fps=0.4 q=32.0 size=    5170kB time=00:00:04.91 bitrate=8612.2kbits/s speed=0.00922x    frame=  209 fps=0.4 q=32.0 size=    5170kB time=00:00:04.95 bitrate=8541.0kbits/s speed=0.00925x    frame=  210 fps=0.4 q=32.0 size=    5170kB time=00:00:05.00 bitrate=8469.3kbits/s speed=0.00929x    frame=  211 fps=0.4 q=32.0 size=    5170kB time=00:00:05.04 bitrate=8398.7kbits/s speed=0.00914x    frame=  212 fps=0.4 q=32.0 size=    5170kB time=00:00:05.08 bitrate=8331.0kbits/s speed=0.00914x    frame=  213 fps=0.4 q=32.0 size=    5170kB time=00:00:05.12 bitrate=8262.7kbits/s speed=0.00918x    frame=  214 fps=0.4 q=32.0 size=    5170kB time=00:00:05.16 bitrate=8195.6kbits/s speed=0.00921x    frame=  215 fps=0.4 q=32.0 size=    5170kB time=00:00:05.20 bitrate=8131.1kbits/s speed=0.00924x    frame=  216 fps=0.4 q=32.0 size=    5170kB time=00:00:05.25 bitrate=8066.0kbits/s speed=0.00927x    frame=  217 fps=0.4 q=32.0 size=    5170kB time=00:00:05.29 bitrate=8002.0kbits/s speed=0.00919x    frame=  218 fps=0.4 q=32.0 size=    5170kB time=00:00:05.33 bitrate=7940.5kbits/s speed=0.00921x    frame=  219 fps=0.4 q=32.0 size=    5170kB time=00:00:05.37 bitrate=7878.5kbits/s speed=0.00921x    frame=  220 fps=0.4 q=32.0 size=    5170kB time=00:00:05.41 bitrate=7817.4kbits/s speed=0.00924x    frame=  221 fps=0.4 q=32.0 size=    5170kB time=00:00:05.45 bitrate=7758.7kbits/s speed=0.00928x    frame=  222 fps=0.4 q=32.0 size=    5170kB time=00:00:05.50 bitrate=7699.5kbits/s speed=0.0093x    frame=  223 fps=0.4 q=32.0 size=    5170kB time=00:00:05.54 bitrate=7641.1kbits/s speed=0.00924x    frame=  224 fps=0.4 q=32.0 size=    5170kB time=00:00:05.58 bitrate=7585.0kbits/s speed=0.00924x    frame=  225 fps=0.4 q=32.0 size=    5170kB time=00:00:05.62 bitrate=7528.4kbits/s speed=0.00925x    frame=  226 fps=0.4 q=32.0 size=    5170kB time=00:00:05.66 bitrate=7472.6kbits/s speed=0.00929x    frame=  227 fps=0.4 q=32.0 size=    5170kB time=00:00:05.70 bitrate=7418.9kbits/s speed=0.0093x    frame=  228 fps=0.4 q=32.0 size=    5170kB time=00:00:05.75 bitrate=7364.8kbits/s speed=0.00932x    frame=  229 fps=0.4 q=32.0 size=    5170kB time=00:00:05.79 bitrate=7311.4kbits/s speed=0.0093x    frame=  230 fps=0.4 q=32.0 size=    5170kB time=00:00:05.83 bitrate=7260.0kbits/s speed=0.00928x    frame=  231 fps=0.4 q=32.0 size=    5170kB time=00:00:05.87 bitrate=7208.1kbits/s speed=0.00929x    frame=  232 fps=0.4 q=32.0 size=    5170kB time=00:00:05.91 bitrate=7156.9kbits/s speed=0.00932x    frame=  233 fps=0.4 q=32.0 size=    5170kB time=00:00:05.95 bitrate=7107.7kbits/s speed=0.00934x    frame=  234 fps=0.4 q=32.0 size=    5170kB time=00:00:06.00 bitrate=7058.0kbits/s speed=0.00937x    frame=  235 fps=0.4 q=32.0 size=    5170kB time=00:00:06.04 bitrate=7008.9kbits/s speed=0.00937x    frame=  236 fps=0.4 q=32.0 size=    5170kB time=00:00:06.08 bitrate=6961.7kbits/s speed=0.00935x    frame=  237 fps=0.4 q=32.0 size=    5170kB time=00:00:06.12 bitrate=6913.9kbits/s speed=0.00938x    frame=  238 fps=0.4 q=32.0 size=    5170kB time=00:00:06.16 bitrate=6866.9kbits/s speed=0.00938x    frame=  239 fps=0.4 q=32.0 size=   10296kB time=00:00:06.20 bitrate=13584.3kbits/s speed=0.0094x    frame=  240 fps=0.4 q=32.0 size=   10296kB time=00:00:06.25 bitrate=13493.0kbits/s speed=0.00945x    frame=  241 fps=0.4 q=32.0 size=   10296kB time=00:00:06.29 bitrate=13403.0kbits/s speed=0.00946x    frame=  242 fps=0.4 q=32.0 size=   10296kB time=00:00:06.33 bitrate=13316.2kbits/s speed=0.0095x    frame=  243 fps=0.4 q=31.0 size=   10296kB time=00:00:06.37 bitrate=13228.5kbits/s speed=0.00954x    frame=  245 fps=0.4 q=31.0 size=   10296kB time=00:00:06.45 bitrate=13058.5kbits/s speed=0.00943x    frame=  246 fps=0.4 q=31.0 size=   10296kB time=00:00:06.50 bitrate=12974.2kbits/s speed=0.00946x    frame=  247 fps=0.4 q=31.0 size=   10296kB time=00:00:06.54 bitrate=12890.9kbits/s speed=0.0095x    frame=  248 fps=0.4 q=31.0 size=   10296kB time=00:00:06.58 bitrate=12810.6kbits/s speed=0.00953x    frame=  249 fps=0.4 q=31.0 size=   10296kB time=00:00:06.62 bitrate=12729.4kbits/s speed=0.00956x    frame=  250 fps=0.4 q=31.0 size=   10296kB time=00:00:06.66 bitrate=12649.2kbits/s speed=0.00959x    frame=  251 fps=0.4 q=31.0 size=   10296kB time=00:00:06.70 bitrate=12571.9kbits/s speed=0.00949x    frame=  252 fps=0.4 q=31.0 size=   10296kB time=00:00:06.75 bitrate=12493.7kbits/s speed=0.0095x    frame=  253 fps=0.4 q=31.0 size=   10296kB time=00:00:06.79 bitrate=12416.5kbits/s speed=0.00954x    frame=  254 fps=0.4 q=31.0 size=   10296kB time=00:00:06.83 bitrate=12342.0kbits/s speed=0.00954x    frame=  255 fps=0.4 q=31.0 size=   10296kB time=00:00:06.87 bitrate=12266.6kbits/s speed=0.00953x    frame=  256 fps=0.4 q=31.0 size=   10296kB time=00:00:06.91 bitrate=12192.1kbits/s speed=0.00957x    frame=  257 fps=0.4 q=31.0 size=   10296kB time=00:00:06.95 bitrate=12120.3kbits/s speed=0.0095x    frame=  258 fps=0.4 q=31.0 size=   10296kB time=00:00:07.00 bitrate=12047.6kbits/s speed=0.0095x    frame=  259 fps=0.4 q=31.0 size=   10296kB time=00:00:07.04 bitrate=11975.7kbits/s speed=0.00952x    frame=  260 fps=0.4 q=31.0 size=   10296kB time=00:00:07.08 bitrate=11906.4kbits/s speed=0.00954x    frame=  261 fps=0.3 q=31.0 size=   10296kB time=00:00:07.12 bitrate=11836.2kbits/s speed=0.00954x    frame=  262 fps=0.3 q=31.0 size=   10296kB time=00:00:07.16 bitrate=11766.9kbits/s speed=0.00956x    frame=  263 fps=0.3 q=31.0 size=   10296kB time=00:00:07.20 bitrate=11700.0kbits/s speed=0.0095x    frame=  264 fps=0.3 q=31.0 size=   10296kB time=00:00:07.25 bitrate=11632.2kbits/s speed=0.00952x    frame=  265 fps=0.3 q=31.0 size=   10296kB time=00:00:07.29 bitrate=11565.2kbits/s speed=0.00952x    frame=  266 fps=0.3 q=31.0 size=   10296kB time=00:00:07.33 bitrate=11500.5kbits/s speed=0.00954x    frame=  267 fps=0.3 q=31.0 size=   10296kB time=00:00:07.37 bitrate=11435.1kbits/s speed=0.00956x    frame=  268 fps=0.3 q=31.0 size=   10296kB time=00:00:07.41 bitrate=11370.3kbits/s speed=0.00956x    frame=  269 fps=0.3 q=31.0 size=   10296kB time=00:00:07.45 bitrate=11307.8kbits/s speed=0.00952x    frame=  270 fps=0.3 q=31.0 size=   10296kB time=00:00:07.50 bitrate=11244.5kbits/s speed=0.00954x    frame=  271 fps=0.3 q=31.0 size=   10296kB time=00:00:07.54 bitrate=11181.9kbits/s speed=0.00955x    frame=  272 fps=0.3 q=31.0 size=   10296kB time=00:00:07.58 bitrate=11121.4kbits/s speed=0.0095x    frame=  273 fps=0.3 q=31.0 size=   10296kB time=00:00:07.62 bitrate=11060.2kbits/s speed=0.00951x    frame=  274 fps=0.3 q=31.0 size=   10296kB time=00:00:07.66 bitrate=10999.6kbits/s speed=0.00954x    frame=  276 fps=0.3 q=31.0 size=   10296kB time=00:00:07.75 bitrate=10881.8kbits/s speed=0.00959x    frame=  277 fps=0.3 q=31.0 size=   10296kB time=00:00:07.79 bitrate=10823.2kbits/s speed=0.00962x    frame=  278 fps=0.3 q=31.0 size=   10296kB time=00:00:07.83 bitrate=10766.5kbits/s speed=0.00966x    frame=  279 fps=0.3 q=31.0 size=   10296kB time=00:00:07.87 bitrate=10709.1kbits/s speed=0.00956x    frame=  280 fps=0.3 q=31.0 size=   10296kB time=00:00:07.91 bitrate=10652.3kbits/s speed=0.00959x    frame=  281 fps=0.3 q=31.0 size=   10296kB time=00:00:07.95 bitrate=10597.4kbits/s speed=0.00962x    frame=  282 fps=0.3 q=31.0 size=   10296kB time=00:00:08.00 bitrate=10541.8kbits/s speed=0.00965x    frame=  283 fps=0.3 q=31.0 size=   10296kB time=00:00:08.04 bitrate=10486.8kbits/s speed=0.00967x    frame=  284 fps=0.3 q=31.0 size=   10296kB time=00:00:08.08 bitrate=10433.6kbits/s speed=0.0097x    frame=  285 fps=0.3 q=31.0 size=   10296kB time=00:00:08.12 bitrate=10379.6kbits/s speed=0.0096x    frame=  286 fps=0.3 q=31.0 size=   10296kB time=00:00:08.16 bitrate=10326.3kbits/s speed=0.00961x    frame=  287 fps=0.3 q=31.0 size=   10296kB time=00:00:08.20 bitrate=10274.7kbits/s speed=0.00961x    frame=  288 fps=0.3 q=31.0 size=   10296kB time=00:00:08.25 bitrate=10222.4kbits/s speed=0.00961x    frame=  289 fps=0.3 q=31.0 size=   10296kB time=00:00:08.29 bitrate=10170.6kbits/s speed=0.00963x    frame=  290 fps=0.3 q=31.0 size=   10296kB time=00:00:08.33 bitrate=10120.6kbits/s speed=0.00964x    frame=  291 fps=0.3 q=31.0 size=   10296kB time=00:00:08.37 bitrate=10069.8kbits/s speed=0.00961x    frame=  292 fps=0.3 q=31.0 size=   10296kB time=00:00:08.41 bitrate=10019.6kbits/s speed=0.0096x    frame=  293 fps=0.3 q=30.0 size=   10296kB time=00:00:08.45 bitrate=9971.0kbits/s speed=0.0096x    frame=  294 fps=0.3 q=30.0 size=   10296kB time=00:00:08.50 bitrate=9921.8kbits/s speed=0.00961x    frame=  295 fps=0.3 q=30.0 size=   10296kB time=00:00:08.54 bitrate=9873.0kbits/s speed=0.00963x    frame=  296 fps=0.3 q=30.0 size=   10296kB time=00:00:08.58 bitrate=9825.8kbits/s speed=0.00964x    frame=  297 fps=0.3 q=30.0 size=   10296kB time=00:00:08.62 bitrate=9778.0kbits/s speed=0.00959x    frame=  298 fps=0.3 q=30.0 size=   10296kB time=00:00:08.66 bitrate=9730.6kbits/s speed=0.00962x    frame=  299 fps=0.3 q=30.0 size=   10296kB time=00:00:08.70 bitrate=9684.8kbits/s speed=0.0096x    frame=  300 fps=0.3 q=30.0 size=   10296kB time=00:00:08.75 bitrate=9638.3kbits/s speed=0.00959x    frame=  301 fps=0.3 q=30.0 size=   10296kB time=00:00:08.79 bitrate=9592.3kbits/s speed=0.00963x    frame=  302 fps=0.3 q=30.0 size=   10296kB time=00:00:08.83 bitrate=9547.8kbits/s speed=0.00963x    frame=  303 fps=0.3 q=30.0 size=   10296kB time=00:00:08.87 bitrate=9502.6kbits/s speed=0.00966x    frame=  304 fps=0.3 q=30.0 size=   10296kB time=00:00:08.91 bitrate=9457.8kbits/s speed=0.00965x    frame=  305 fps=0.3 q=30.0 size=   10296kB time=00:00:08.95 bitrate=9414.6kbits/s speed=0.00963x    frame=  306 fps=0.3 q=30.0 size=   10296kB time=00:00:09.00 bitrate=9370.6kbits/s speed=0.00966x    frame=  307 fps=0.3 q=30.0 size=   10296kB time=00:00:09.04 bitrate=9327.1kbits/s speed=0.00963x    frame=  308 fps=0.3 q=30.0 size=   10296kB time=00:00:09.08 bitrate=9285.0kbits/s speed=0.00966x    frame=  309 fps=0.3 q=30.0 size=   10296kB time=00:00:09.12 bitrate=9242.3kbits/s speed=0.00969x    frame=  310 fps=0.3 q=30.0 size=   10296kB time=00:00:09.16 bitrate=9199.9kbits/s speed=0.00967x    frame=  311 fps=0.3 q=30.0 size=   10296kB time=00:00:09.20 bitrate=9159.0kbits/s speed=0.00969x    frame=  312 fps=0.3 q=30.0 size=   10296kB time=00:00:09.25 bitrate=9117.4kbits/s speed=0.00972x    frame=  314 fps=0.3 q=30.0 size=   10296kB time=00:00:09.33 bitrate=9036.3kbits/s speed=0.00968x    frame=  315 fps=0.3 q=30.0 size=   10296kB time=00:00:09.37 bitrate=8995.8kbits/s speed=0.00971x    frame=  316 fps=0.3 q=30.0 size=   10296kB time=00:00:09.41 bitrate=8955.7kbits/s speed=0.00974x    frame=  319 fps=0.3 q=30.0 size=   10296kB time=00:00:09.54 bitrate=8838.4kbits/s speed=0.0098x    frame=  320 fps=0.3 q=30.0 size=   10296kB time=00:00:09.58 bitrate=8800.6kbits/s speed=0.00983x    frame=  321 fps=0.3 q=30.0 size=   10296kB time=00:00:09.62 bitrate=8762.2kbits/s speed=0.00974x    frame=  322 fps=0.3 q=30.0 size=   10296kB time=00:00:09.66 bitrate=8724.1kbits/s speed=0.00976x    frame=  323 fps=0.3 q=30.0 size=   10296kB time=00:00:09.70 bitrate=8687.3kbits/s speed=0.00979x    frame=  324 fps=0.3 q=30.0 size=   15473kB time=00:00:09.75 bitrate=12999.1kbits/s speed=0.00981x    frame=  325 fps=0.3 q=30.0 size=   15473kB time=00:00:09.79 bitrate=12943.3kbits/s speed=0.00984x    frame=  326 fps=0.3 q=30.0 size=   15473kB time=00:00:09.83 bitrate=12889.3kbits/s speed=0.00986x    frame=  327 fps=0.3 q=30.0 size=   15473kB time=00:00:09.87 bitrate=12834.5kbits/s speed=0.00988x    frame=  328 fps=0.3 q=30.0 size=   15473kB time=00:00:09.91 bitrate=12780.2kbits/s speed=0.00979x    frame=  329 fps=0.3 q=30.0 size=   15473kB time=00:00:09.95 bitrate=12727.6kbits/s speed=0.00981x    frame=  330 fps=0.3 q=30.0 size=   15473kB time=00:00:10.00 bitrate=12674.1kbits/s speed=0.00984x    frame=  331 fps=0.3 q=30.0 size=   15473kB time=00:00:10.04 bitrate=12621.1kbits/s speed=0.00987x    frame=  332 fps=0.3 q=30.0 size=   15473kB time=00:00:10.08 bitrate=12569.8kbits/s speed=0.00988x    frame=  333 fps=0.3 q=27.0 size=   15473kB time=00:00:10.12 bitrate=12517.7kbits/s speed=0.00991x    frame=  334 fps=0.3 q=30.0 size=   15473kB time=00:00:10.16 bitrate=12466.0kbits/s speed=0.00984x    frame=  335 fps=0.3 q=30.0 size=   15473kB time=00:00:10.20 bitrate=12415.9kbits/s speed=0.00986x    frame=  336 fps=0.3 q=30.0 size=   15473kB time=00:00:10.25 bitrate=12365.0kbits/s speed=0.00987x    frame=  337 fps=0.3 q=30.0 size=   15473kB time=00:00:10.29 bitrate=12314.6kbits/s speed=0.0099x    frame=  338 fps=0.3 q=30.0 size=   16211kB time=00:00:10.33 bitrate=12850.7kbits/s speed=0.00992x    frame=  342 fps=0.3 q=30.0 size=   16211kB time=00:00:10.50 bitrate=12646.4kbits/s speed=0.0101x    frame=  344 fps=0.3 q=30.0 size=   16211kB time=00:00:10.58 bitrate=12547.2kbits/s speed=0.0101x    frame=  346 fps=0.3 q=30.0 size=   16211kB time=00:00:10.66 bitrate=12448.4kbits/s speed=0.0102x    frame=  347 fps=0.3 q=30.0 size=   16211kB time=00:00:10.70 bitrate=12400.7kbits/s speed=0.0102x    frame=  348 fps=0.3 q=27.0 size=   16211kB time=00:00:10.75 bitrate=12352.3kbits/s speed=0.0102x    frame=  349 fps=0.3 q=30.0 size=   16211kB time=00:00:10.79 bitrate=12304.2kbits/s speed=0.0103x    frame=  350 fps=0.3 q=30.0 size=   16211kB time=00:00:10.83 bitrate=12257.7kbits/s speed=0.0103x    frame=  351 fps=0.3 q=30.0 size=   16211kB time=00:00:10.87 bitrate=12210.3kbits/s speed=0.0103x    frame=  353 fps=0.3 q=30.0 size=   16211kB time=00:00:10.95 bitrate=12117.9kbits/s speed=0.0104x    frame=  355 fps=0.3 q=30.0 size=   16211kB time=00:00:11.04 bitrate=12025.7kbits/s speed=0.0104x    frame=  356 fps=0.3 q=30.0 size=   16211kB time=00:00:11.08 bitrate=11981.2kbits/s speed=0.0104x    frame=  357 fps=0.3 q=30.0 size=   16211kB time=00:00:11.12 bitrate=11936.0kbits/s speed=0.0104x    frame=  358 fps=0.3 q=30.0 size=   16211kB time=00:00:11.16 bitrate=11891.1kbits/s speed=0.0104x    frame=  359 fps=0.3 q=29.0 size=   16211kB time=00:00:11.20 bitrate=11847.6kbits/s speed=0.0104x    frame=  360 fps=0.3 q=29.0 size=   16211kB time=00:00:11.25 bitrate=11803.4kbits/s speed=0.0105x    frame=  361 fps=0.3 q=29.0 size=   16211kB time=00:00:11.29 bitrate=11759.5kbits/s speed=0.0104x    frame=  362 fps=0.3 q=29.0 size=   16211kB time=00:00:11.33 bitrate=11716.9kbits/s speed=0.0105x    frame=  363 fps=0.3 q=29.0 size=   16211kB time=00:00:11.37 bitrate=11673.7kbits/s speed=0.0105x    frame=  364 fps=0.3 q=29.0 size=   16211kB time=00:00:11.41 bitrate=11630.7kbits/s speed=0.0105x    frame=  365 fps=0.3 q=29.0 size=   16211kB time=00:00:11.45 bitrate=11589.1kbits/s speed=0.0105x    frame=  366 fps=0.3 q=29.0 size=   16211kB time=00:00:11.50 bitrate=11546.8kbits/s speed=0.0105x    frame=  367 fps=0.3 q=29.0 size=   16211kB time=00:00:11.54 bitrate=11504.8kbits/s speed=0.0105x    frame=  369 fps=0.3 q=29.0 size=   16211kB time=00:00:11.62 bitrate=11422.6kbits/s speed=0.0105x    frame=  370 fps=0.3 q=29.0 size=   16211kB time=00:00:11.66 bitrate=11381.5kbits/s speed=0.0106x    frame=  371 fps=0.3 q=29.0 size=   16211kB time=00:00:11.70 bitrate=11341.7kbits/s speed=0.0106x    frame=  372 fps=0.3 q=29.0 size=   16211kB time=00:00:11.75 bitrate=11301.1kbits/s speed=0.0105x    frame=  373 fps=0.3 q=29.0 size=   16211kB time=00:00:11.79 bitrate=11260.9kbits/s speed=0.0106x    frame=  374 fps=0.3 q=29.0 size=   16211kB time=00:00:11.83 bitrate=11221.9kbits/s speed=0.0106x    frame=  376 fps=0.3 q=29.0 size=   16211kB time=00:00:11.91 bitrate=11142.8kbits/s speed=0.0106x    frame=  377 fps=0.3 q=29.0 size=   16211kB time=00:00:11.95 bitrate=11104.6kbits/s speed=0.0106x    frame=  378 fps=0.3 q=29.0 size=   16211kB time=00:00:12.00 bitrate=11065.7kbits/s speed=0.0107x    frame=  380 fps=0.3 q=29.0 size=   16211kB time=00:00:12.08 bitrate=10989.7kbits/s speed=0.0106x    frame=  381 fps=0.3 q=29.0 size=   16211kB time=00:00:12.12 bitrate=10951.6kbits/s speed=0.0107x    frame=  382 fps=0.3 q=29.0 size=   16211kB time=00:00:12.16 bitrate=10913.8kbits/s speed=0.0107x    frame=  385 fps=0.3 q=29.0 size=   16211kB time=00:00:12.29 bitrate=10802.9kbits/s speed=0.0107x    frame=  386 fps=0.3 q=29.0 size=   16211kB time=00:00:12.33 bitrate=10766.9kbits/s speed=0.0108x    frame=  387 fps=0.3 q=29.0 size=   16211kB time=00:00:12.37 bitrate=10730.4kbits/s speed=0.0108x    frame=  388 fps=0.3 q=29.0 size=   16211kB time=00:00:12.41 bitrate=10694.1kbits/s speed=0.0108x    frame=  389 fps=0.3 q=29.0 size=   16211kB time=00:00:12.45 bitrate=10658.9kbits/s speed=0.0108x    frame=  390 fps=0.3 q=29.0 size=   16211kB time=00:00:12.50 bitrate=10623.1kbits/s speed=0.0108x    frame=  394 fps=0.3 q=28.0 size=   16211kB time=00:00:12.66 bitrate=10483.1kbits/s speed=0.0108x    frame=  395 fps=0.3 q=28.0 size=   16211kB time=00:00:12.70 bitrate=10449.3kbits/s speed=0.0109x    frame=  396 fps=0.3 q=29.0 size=   16211kB time=00:00:12.75 bitrate=10414.8kbits/s speed=0.0109x    frame=  400 fps=0.3 q=28.0 size=   16211kB time=00:00:12.91 bitrate=10280.2kbits/s speed=0.0109x    frame=  401 fps=0.3 q=28.0 size=   16211kB time=00:00:12.95 bitrate=10247.7kbits/s speed=0.0109x    frame=  403 fps=0.3 q=28.0 size=   16211kB time=00:00:13.04 bitrate=10181.7kbits/s speed=0.011x    frame=  406 fps=0.3 q=28.0 size=   16211kB time=00:00:13.16 bitrate=10085.0kbits/s speed=0.011x    frame=  407 fps=0.3 q=28.0 size=   16211kB time=00:00:13.20 bitrate=10053.7kbits/s speed=0.011x    frame=  408 fps=0.3 q=28.0 size=   16211kB time=00:00:13.25 bitrate=10021.9kbits/s speed=0.011x    frame=  411 fps=0.3 q=28.0 size=   16211kB time=00:00:13.37 bitrate=9928.2kbits/s speed=0.0111x    frame=  412 fps=0.3 q=28.0 size=   16211kB time=00:00:13.41 bitrate=9897.1kbits/s speed=0.0111x    frame=  413 fps=0.3 q=28.0 size=   16211kB time=00:00:13.45 bitrate=9867.0kbits/s speed=0.0111x    frame=  416 fps=0.3 q=28.0 size=   16211kB time=00:00:13.58 bitrate=9776.2kbits/s speed=0.0111x    frame=  417 fps=0.3 q=28.0 size=   16211kB time=00:00:13.62 bitrate=9746.0kbits/s speed=0.0112x    frame=  418 fps=0.3 q=28.0 size=   16211kB time=00:00:13.66 bitrate=9716.1kbits/s speed=0.0112x    frame=  421 fps=0.3 q=27.0 size=   16211kB time=00:00:13.79 bitrate=9628.0kbits/s speed=0.0112x    frame=  422 fps=0.3 q=27.0 size=   16211kB time=00:00:13.83 bitrate=9599.5kbits/s speed=0.0112x    frame=  423 fps=0.3 q=27.0 size=   16211kB time=00:00:13.87 bitrate=9570.4kbits/s speed=0.0113x    frame=  425 fps=0.3 q=27.0 size=   16211kB time=00:00:13.95 bitrate=9513.5kbits/s speed=0.0113x    frame=  426 fps=0.3 q=27.0 size=   16211kB time=00:00:14.00 bitrate=9485.0kbits/s speed=0.0113x    frame=  427 fps=0.3 q=27.0 size=   16211kB time=00:00:14.04 bitrate=9456.6kbits/s speed=0.0113x    frame=  428 fps=0.3 q=27.0 size=   16211kB time=00:00:14.08 bitrate=9429.1kbits/s speed=0.0113x    frame=  432 fps=0.3 q=27.0 size=   16211kB time=00:00:14.25 bitrate=9318.6kbits/s speed=0.0114x    frame=  433 fps=0.3 q=27.0 size=   16211kB time=00:00:14.29 bitrate=9291.2kbits/s speed=0.0114x    frame=  434 fps=0.3 q=27.0 size=   16211kB time=00:00:14.33 bitrate=9264.7kbits/s speed=0.0114x    frame=  438 fps=0.3 q=27.0 size=   16211kB time=00:00:14.50 bitrate=9158.0kbits/s speed=0.0114x    frame=  439 fps=0.3 q=27.0 size=   16211kB time=00:00:14.54 bitrate=9131.5kbits/s speed=0.0115x    frame=  442 fps=0.3 q=26.0 size=   16211kB time=00:00:14.66 bitrate=9053.7kbits/s speed=0.0116x    frame=  444 fps=0.3 q=26.0 size=   16211kB time=00:00:14.75 bitrate=9002.7kbits/s speed=0.0115x    frame=  445 fps=0.3 q=26.0 size=   16211kB time=00:00:14.79 bitrate=8977.2kbits/s speed=0.0115x    frame=  446 fps=0.3 q=26.0 size=   16211kB time=00:00:14.83 bitrate=8952.4kbits/s speed=0.0116x    frame=  448 fps=0.3 q=26.0 size=   21407kB time=00:00:14.91 bitrate=11755.4kbits/s speed=0.0115x    frame=  449 fps=0.3 q=26.0 size=   21407kB time=00:00:14.95 bitrate=11723.2kbits/s speed=0.0116x    frame=  450 fps=0.3 q=26.0 size=   21407kB time=00:00:15.00 bitrate=11690.3kbits/s speed=0.0116x    frame=  452 fps=0.3 q=26.0 size=   21407kB time=00:00:15.08 bitrate=11626.0kbits/s speed=0.0116x    frame=  453 fps=0.3 q=26.0 size=   21407kB time=00:00:15.12 bitrate=11593.7kbits/s speed=0.0116x    frame=  454 fps=0.3 q=26.0 size=   21407kB time=00:00:15.16 bitrate=11561.6kbits/s speed=0.0116x    frame=  455 fps=0.3 q=26.0 size=   21407kB time=00:00:15.20 bitrate=11530.5kbits/s speed=0.0116x    frame=  456 fps=0.3 q=26.0 size=   21407kB time=00:00:15.25 bitrate=11498.7kbits/s speed=0.0116x    frame=  457 fps=0.3 q=26.0 size=   21407kB time=00:00:15.29 bitrate=11467.1kbits/s speed=0.0116x    frame=  458 fps=0.3 q=26.0 size=   21407kB time=00:00:15.33 bitrate=11436.5kbits/s speed=0.0116x    frame=  459 fps=0.3 q=26.0 size=   21407kB time=00:00:15.37 bitrate=11405.2kbits/s speed=0.0116x    frame=  460 fps=0.3 q=26.0 size=   21407kB time=00:00:15.41 bitrate=11374.2kbits/s speed=0.0116x    frame=  461 fps=0.3 q=26.0 size=   21407kB time=00:00:15.45 bitrate=11344.0kbits/s speed=0.0116x    frame=  462 fps=0.3 q=26.0 size=   21407kB time=00:00:15.50 bitrate=11313.2kbits/s speed=0.0116x    frame=  463 fps=0.3 q=26.0 size=   21407kB time=00:00:15.54 bitrate=11282.7kbits/s speed=0.0116x    frame=  464 fps=0.3 q=26.0 size=   21407kB time=00:00:15.58 bitrate=11253.0kbits/s speed=0.0116x    frame=  465 fps=0.3 q=26.0 size=   21407kB time=00:00:15.62 bitrate=11222.7kbits/s speed=0.0117x    frame=  467 fps=0.3 q=26.0 size=   21407kB time=00:00:15.70 bitrate=11163.5kbits/s speed=0.0116x    frame=  468 fps=0.3 q=26.0 size=   21407kB time=00:00:15.75 bitrate=11133.7kbits/s speed=0.0117x    frame=  469 fps=0.3 q=26.0 size=   21407kB time=00:00:15.79 bitrate=11104.1kbits/s speed=0.0117x    frame=  470 fps=0.3 q=26.0 size=   21407kB time=00:00:15.83 bitrate=11075.3kbits/s speed=0.0116x    frame=  471 fps=0.3 q=26.0 size=   21407kB time=00:00:15.87 bitrate=11046.0kbits/s speed=0.0117x    frame=  472 fps=0.3 q=26.0 size=   21407kB time=00:00:15.91 bitrate=11016.9kbits/s speed=0.0117x    frame=  476 fps=0.3 q=26.0 size=   21407kB time=00:00:16.08 bitrate=10903.2kbits/s speed=0.0117x    frame=  477 fps=0.3 q=26.0 size=   21407kB time=00:00:16.12 bitrate=10874.8kbits/s speed=0.0117x    frame=  478 fps=0.3 q=26.0 size=   21407kB time=00:00:16.16 bitrate=10846.5kbits/s speed=0.0117x    frame=  479 fps=0.3 q=26.0 size=   21407kB time=00:00:16.20 bitrate=10819.1kbits/s speed=0.0117x    frame=  480 fps=0.3 q=26.0 size=   21407kB time=00:00:16.25 bitrate=10791.1kbits/s speed=0.0117x    frame=  481 fps=0.3 q=26.0 size=   21407kB time=00:00:16.29 bitrate=10763.3kbits/s speed=0.0118x    frame=  482 fps=0.3 q=26.0 size=   21407kB time=00:00:16.33 bitrate=10736.3kbits/s speed=0.0118x    frame=  483 fps=0.3 q=26.0 size=   21407kB time=00:00:16.37 bitrate=10708.8kbits/s speed=0.0117x    frame=  484 fps=0.3 q=26.0 size=   21407kB time=00:00:16.41 bitrate=10681.4kbits/s speed=0.0117x    frame=  485 fps=0.3 q=26.0 size=   21407kB time=00:00:16.45 bitrate=10654.8kbits/s speed=0.0117x    frame=  487 fps=0.3 q=26.0 size=   21407kB time=00:00:16.54 bitrate=10600.7kbits/s speed=0.0118x    frame=  488 fps=0.3 q=26.0 size=   21407kB time=00:00:16.58 bitrate=10574.5kbits/s speed=0.0118x    frame=  489 fps=0.3 q=26.0 size=   21407kB time=00:00:16.62 bitrate=10547.7kbits/s speed=0.0118x    frame=  490 fps=0.3 q=26.0 size=   21407kB time=00:00:16.66 bitrate=10521.2kbits/s speed=0.0117x    frame=  491 fps=0.3 q=26.0 size=   21407kB time=00:00:16.70 bitrate=10495.3kbits/s speed=0.0117x    frame=  492 fps=0.3 q=26.0 size=   21407kB time=00:00:16.75 bitrate=10469.0kbits/s speed=0.0117x    frame=  493 fps=0.3 q=26.0 size=   21407kB time=00:00:16.79 bitrate=10442.8kbits/s speed=0.0117x    frame=  494 fps=0.3 q=26.0 size=   21407kB time=00:00:16.83 bitrate=10417.4kbits/s speed=0.0117x    frame=  495 fps=0.3 q=26.0 size=   21407kB time=00:00:16.87 bitrate=10391.5kbits/s speed=0.0117x    frame=  496 fps=0.3 q=26.0 size=   21407kB time=00:00:16.91 bitrate=10365.7kbits/s speed=0.0118x    frame=  497 fps=0.3 q=26.0 size=   21407kB time=00:00:16.95 bitrate=10340.6kbits/s speed=0.0117x    frame=  498 fps=0.3 q=26.0 size=   21407kB time=00:00:17.00 bitrate=10315.1kbits/s speed=0.0117x    frame=  499 fps=0.3 q=26.0 size=   21407kB time=00:00:17.04 bitrate=10289.7kbits/s speed=0.0117x    frame=  500 fps=0.3 q=26.0 size=   21407kB time=00:00:17.08 bitrate=10265.0kbits/s speed=0.0117x    frame=  500 fps=0.3 q=-1.0 Lsize=   31440kB time=00:00:20.70 bitrate=12436.9kbits/s speed=0.0124x    
video:31435kB audio:0kB subtitle:0kB other streams:0kB global headers:0kB muxing overhead: 0.015291%
bench: utime=6353.272s
bench: maxrss=4203252kB
[libx264 @ 0x44711c0] frame I:3     Avg QP:20.34  size:324649
[libx264 @ 0x44711c0] frame P:267   Avg QP:28.33  size: 81800
[libx264 @ 0x44711c0] frame B:230   Avg QP:27.87  size: 40758
[libx264 @ 0x44711c0] consecutive B-frames: 34.8% 13.6% 12.0% 16.0% 14.0%  9.6%  0.0%  0.0%  0.0%  0.0%  0.0%  0.0%  0.0%  0.0%  0.0%  0.0%  0.0%
[libx264 @ 0x44711c0] mb I  I16..4:  9.9% 75.3% 14.9%
[libx264 @ 0x44711c0] mb P  I16..4: 16.3% 15.8%  1.3%  P16..4: 31.5% 19.4%  3.0%  0.2%  0.0%    skip:12.6%
[libx264 @ 0x44711c0] mb B  I16..4:  1.3%  2.6%  0.2%  B16..8: 30.9%  8.9%  1.0%  direct: 1.7%  skip:53.4%  L0:42.9% L1:52.6% BI: 4.5%
[libx264 @ 0x44711c0] final ratefactor: 23.60
[libx264 @ 0x44711c0] 8x8 transform intra:49.8% inter:85.1%
[libx264 @ 0x44711c0] direct mvs  spatial:98.7% temporal:1.3%
[libx264 @ 0x44711c0] coded y,uvDC,uvAC intra: 22.1% 25.1% 3.0% inter: 7.8% 7.5% 0.2%
[libx264 @ 0x44711c0] i16 v,h,dc,p:  8% 15%  3% 74%
[libx264 @ 0x44711c0] i8 v,h,dc,ddl,ddr,vr,hd,vl,hu: 10%  8% 14%  7% 11% 10% 13% 10% 16%
[libx264 @ 0x44711c0] i4 v,h,dc,ddl,ddr,vr,hd,vl,hu: 16% 12% 31%  5%  9%  7%  8%  5%  8%
[libx264 @ 0x44711c0] i8c dc,h,v,p: 18% 42% 16% 24%
[libx264 @ 0x44711c0] Weighted P-Frames: Y:3.0% UV:2.6%
[libx264 @ 0x44711c0] ref P L0: 63.5% 17.7%  8.8%  2.9%  1.7%  1.3%  1.0%  0.6%  0.5%  0.4%  0.3%  0.3%  0.3%  0.3%  0.2%  0.2%
[libx264 @ 0x44711c0] ref B L0: 89.3%  5.4%  2.0%  0.9%  0.7%  0.4%  0.4%  0.3%  0.2%  0.1%  0.1%  0.1%  0.1%  0.1%  0.0%
[libx264 @ 0x44711c0] ref B L1: 98.4%  1.6%
[libx264 @ 0x44711c0] kb/s:12360.56
